<mxfile host="app.diagrams.net" modified="2023-11-06T23:26:22.596Z" agent="Mozilla/5.0 (Windows NT 10.0; Win64; x64) AppleWebKit/537.36 (KHTML, like Gecko) Chrome/119.0.0.0 Safari/537.36" version="22.0.8" etag="sLrTFavO2QnSeADuqFLd" type="device">
  <diagram id="j-oMl0y-0RbTXvxWIbYS" name="Page-1">
    <mxGraphModel dx="1050" dy="662" grid="1" gridSize="10" guides="1" tooltips="1" connect="1" arrows="1" fold="1" page="1" pageScale="1" pageWidth="850" pageHeight="1100" math="0" shadow="0">
      <root>
        <mxCell id="0" />
        <mxCell id="1" parent="0" />
        <mxCell id="yey0bKSUoPtyTXpQ5rtE-11" value="" style="edgeStyle=orthogonalEdgeStyle;rounded=0;orthogonalLoop=1;jettySize=auto;html=1;" edge="1" parent="1" source="yey0bKSUoPtyTXpQ5rtE-2" target="yey0bKSUoPtyTXpQ5rtE-3">
          <mxGeometry relative="1" as="geometry" />
        </mxCell>
        <mxCell id="yey0bKSUoPtyTXpQ5rtE-2" value="start" style="ellipse;whiteSpace=wrap;html=1;" vertex="1" parent="1">
          <mxGeometry x="140" y="320" width="120" height="80" as="geometry" />
        </mxCell>
        <mxCell id="yey0bKSUoPtyTXpQ5rtE-12" value="" style="edgeStyle=orthogonalEdgeStyle;rounded=0;orthogonalLoop=1;jettySize=auto;html=1;" edge="1" parent="1" source="yey0bKSUoPtyTXpQ5rtE-3" target="yey0bKSUoPtyTXpQ5rtE-4">
          <mxGeometry relative="1" as="geometry" />
        </mxCell>
        <mxCell id="yey0bKSUoPtyTXpQ5rtE-3" value="a,b,x" style="shape=parallelogram;perimeter=parallelogramPerimeter;whiteSpace=wrap;html=1;fixedSize=1;" vertex="1" parent="1">
          <mxGeometry x="140" y="430" width="120" height="60" as="geometry" />
        </mxCell>
        <mxCell id="yey0bKSUoPtyTXpQ5rtE-13" value="true" style="edgeStyle=orthogonalEdgeStyle;rounded=0;orthogonalLoop=1;jettySize=auto;html=1;" edge="1" parent="1" source="yey0bKSUoPtyTXpQ5rtE-4" target="yey0bKSUoPtyTXpQ5rtE-5">
          <mxGeometry relative="1" as="geometry" />
        </mxCell>
        <mxCell id="yey0bKSUoPtyTXpQ5rtE-4" value="a=0" style="rhombus;whiteSpace=wrap;html=1;" vertex="1" parent="1">
          <mxGeometry x="290" y="420" width="80" height="80" as="geometry" />
        </mxCell>
        <mxCell id="yey0bKSUoPtyTXpQ5rtE-14" value="false" style="edgeStyle=orthogonalEdgeStyle;rounded=0;orthogonalLoop=1;jettySize=auto;html=1;" edge="1" parent="1" source="yey0bKSUoPtyTXpQ5rtE-5" target="yey0bKSUoPtyTXpQ5rtE-7">
          <mxGeometry relative="1" as="geometry">
            <Array as="points">
              <mxPoint x="510" y="460" />
              <mxPoint x="510" y="460" />
            </Array>
          </mxGeometry>
        </mxCell>
        <mxCell id="yey0bKSUoPtyTXpQ5rtE-15" value="true" style="edgeStyle=orthogonalEdgeStyle;rounded=0;orthogonalLoop=1;jettySize=auto;html=1;" edge="1" parent="1" source="yey0bKSUoPtyTXpQ5rtE-5" target="yey0bKSUoPtyTXpQ5rtE-6">
          <mxGeometry relative="1" as="geometry" />
        </mxCell>
        <mxCell id="yey0bKSUoPtyTXpQ5rtE-5" value="b=0" style="rhombus;whiteSpace=wrap;html=1;" vertex="1" parent="1">
          <mxGeometry x="410" y="420" width="80" height="80" as="geometry" />
        </mxCell>
        <mxCell id="yey0bKSUoPtyTXpQ5rtE-17" style="edgeStyle=orthogonalEdgeStyle;rounded=0;orthogonalLoop=1;jettySize=auto;html=1;entryX=1;entryY=0.5;entryDx=0;entryDy=0;" edge="1" parent="1" source="yey0bKSUoPtyTXpQ5rtE-6" target="yey0bKSUoPtyTXpQ5rtE-8">
          <mxGeometry relative="1" as="geometry">
            <Array as="points">
              <mxPoint x="740" y="350" />
              <mxPoint x="740" y="600" />
            </Array>
          </mxGeometry>
        </mxCell>
        <mxCell id="yey0bKSUoPtyTXpQ5rtE-6" value="vô số nghiệm" style="shape=parallelogram;perimeter=parallelogramPerimeter;whiteSpace=wrap;html=1;fixedSize=1;" vertex="1" parent="1">
          <mxGeometry x="390" y="320" width="120" height="60" as="geometry" />
        </mxCell>
        <mxCell id="yey0bKSUoPtyTXpQ5rtE-16" value="" style="edgeStyle=orthogonalEdgeStyle;rounded=0;orthogonalLoop=1;jettySize=auto;html=1;" edge="1" parent="1" source="yey0bKSUoPtyTXpQ5rtE-7" target="yey0bKSUoPtyTXpQ5rtE-8">
          <mxGeometry relative="1" as="geometry" />
        </mxCell>
        <mxCell id="yey0bKSUoPtyTXpQ5rtE-7" value="vô nghiệm" style="shape=parallelogram;perimeter=parallelogramPerimeter;whiteSpace=wrap;html=1;fixedSize=1;" vertex="1" parent="1">
          <mxGeometry x="540" y="420" width="150" height="80" as="geometry" />
        </mxCell>
        <mxCell id="yey0bKSUoPtyTXpQ5rtE-8" value="end" style="ellipse;whiteSpace=wrap;html=1;" vertex="1" parent="1">
          <mxGeometry x="520" y="560" width="120" height="80" as="geometry" />
        </mxCell>
        <mxCell id="yey0bKSUoPtyTXpQ5rtE-19" value="" style="edgeStyle=orthogonalEdgeStyle;rounded=0;orthogonalLoop=1;jettySize=auto;html=1;" edge="1" parent="1" source="yey0bKSUoPtyTXpQ5rtE-9" target="yey0bKSUoPtyTXpQ5rtE-10">
          <mxGeometry relative="1" as="geometry" />
        </mxCell>
        <mxCell id="yey0bKSUoPtyTXpQ5rtE-9" value="x=-b/a" style="rounded=0;whiteSpace=wrap;html=1;" vertex="1" parent="1">
          <mxGeometry x="150" y="560" width="120" height="60" as="geometry" />
        </mxCell>
        <mxCell id="yey0bKSUoPtyTXpQ5rtE-18" value="" style="edgeStyle=orthogonalEdgeStyle;rounded=0;orthogonalLoop=1;jettySize=auto;html=1;" edge="1" parent="1" source="yey0bKSUoPtyTXpQ5rtE-10" target="yey0bKSUoPtyTXpQ5rtE-8">
          <mxGeometry relative="1" as="geometry" />
        </mxCell>
        <mxCell id="yey0bKSUoPtyTXpQ5rtE-10" value="phương trình có nghiệm là x" style="shape=parallelogram;perimeter=parallelogramPerimeter;whiteSpace=wrap;html=1;fixedSize=1;" vertex="1" parent="1">
          <mxGeometry x="350" y="560" width="120" height="60" as="geometry" />
        </mxCell>
        <mxCell id="yey0bKSUoPtyTXpQ5rtE-20" value="false" style="edgeStyle=orthogonalEdgeStyle;rounded=0;orthogonalLoop=1;jettySize=auto;html=1;entryX=0.58;entryY=-0.007;entryDx=0;entryDy=0;entryPerimeter=0;" edge="1" parent="1" source="yey0bKSUoPtyTXpQ5rtE-4" target="yey0bKSUoPtyTXpQ5rtE-9">
          <mxGeometry relative="1" as="geometry">
            <Array as="points">
              <mxPoint x="220" y="500" />
            </Array>
          </mxGeometry>
        </mxCell>
      </root>
    </mxGraphModel>
  </diagram>
</mxfile>
